<svg width="17" height="17" viewBox="0 0 17 17" fill="none" xmlns="http://www.w3.org/2000/svg">
<g clip-path="url(#clip0_1_5)">
<path d="M11.79 5.51741C11.79 5.43393 11.7217 5.36562 11.6382 5.36562L10.3859 5.37132L8.5 7.61964L6.61596 5.37321L5.36183 5.36752C5.27835 5.36752 5.21004 5.43393 5.21004 5.51931C5.21004 5.55536 5.22333 5.58951 5.24609 5.61797L7.71451 8.55882L5.24609 11.4978C5.22317 11.5256 5.21045 11.5604 5.21004 11.5964C5.21004 11.6799 5.27835 11.7482 5.36183 11.7482L6.61596 11.7425L8.5 9.4942L10.384 11.7406L11.6363 11.7463C11.7198 11.7463 11.7881 11.6799 11.7881 11.5945C11.7881 11.5585 11.7748 11.5243 11.752 11.4959L9.28739 8.55692L11.7558 5.61607C11.7786 5.58951 11.79 5.55346 11.79 5.51741Z" fill="black"/>
<path d="M8.5 0.0189728C3.80603 0.0189728 -7.15256e-07 3.825 -7.15256e-07 8.51897C-7.15256e-07 13.2129 3.80603 17.019 8.5 17.019C13.194 17.019 17 13.2129 17 8.51897C17 3.825 13.194 0.0189728 8.5 0.0189728ZM8.5 15.577C4.6029 15.577 1.44196 12.4161 1.44196 8.51897C1.44196 4.62187 4.6029 1.46094 8.5 1.46094C12.3971 1.46094 15.558 4.62187 15.558 8.51897C15.558 12.4161 12.3971 15.577 8.5 15.577Z" fill="black"/>
</g>
<defs>
<clipPath id="clip0_1_5">
<rect width="17" height="17" fill="white"/>
</clipPath>
</defs>
</svg>
