<svg width="19" height="15" viewBox="0 0 19 15" fill="none" xmlns="http://www.w3.org/2000/svg">
<path d="M17.921 2.41536H1.23542C0.974626 2.41536 0.763184 2.21548 0.763184 1.96894V0.77846C0.763184 0.53192 0.974626 0.332031 1.23542 0.332031H17.921C18.1818 0.332031 18.3932 0.53192 18.3932 0.77846V1.96894C18.3932 2.21548 18.1818 2.41536 17.921 2.41536ZM17.921 8.36775H1.23542C0.974626 8.36775 0.763184 8.16786 0.763184 7.92132V6.73084C0.763184 6.4843 0.974626 6.28441 1.23542 6.28441H17.921C18.1818 6.28441 18.3932 6.4843 18.3932 6.73084V7.92132C18.3932 8.16786 18.1818 8.36775 17.921 8.36775ZM17.921 14.3201H1.23542C0.974626 14.3201 0.763184 14.1202 0.763184 13.8737V12.6832C0.763184 12.4367 0.974626 12.2368 1.23542 12.2368H17.921C18.1818 12.2368 18.3932 12.4367 18.3932 12.6832V13.8737C18.3932 14.1202 18.1818 14.3201 17.921 14.3201Z" fill="#272F6A"/>
</svg>
