<svg width="16" height="17" viewBox="0 0 16 17" fill="none" xmlns="http://www.w3.org/2000/svg">
<path d="M14.0147 4.33389C13.2847 4.31993 12.6872 4.93132 12.6872 5.66146V8.50033H12.4268V2.76433C12.4268 2.03419 11.8292 1.42279 11.0992 1.43676C10.3919 1.4503 9.82259 2.02797 9.82259 2.73861V8.50033H9.56217V1.4948C9.56217 0.764655 8.96465 0.153262 8.23467 0.167227C7.52728 0.180768 6.95801 0.758438 6.95801 1.46908V8.50033H6.69759V2.79688C6.69759 2.06674 6.10006 1.45534 5.37008 1.46931C4.66269 1.48285 4.09342 2.06052 4.09342 2.77116V10.4532L3.06322 9.03656C2.64027 8.45498 1.82594 8.32637 1.2443 8.74935C0.662762 9.17233 0.534181 9.98666 0.95713 10.5683L5.0457 16.1902C5.19066 16.3895 5.3807 16.5517 5.60032 16.6635C5.81993 16.7754 6.06289 16.8337 6.30934 16.8337H12.7413C13.4664 16.8337 14.0962 16.3348 14.2623 15.629L15.1252 11.9617C15.2355 11.4926 15.2913 11.0122 15.2913 10.5302V5.63575C15.2913 4.9251 14.7221 4.34743 14.0147 4.33389Z" fill="#5F6AC4"/>
</svg>
