<svg width="8" height="9" viewBox="0 0 8 9" fill="none" xmlns="http://www.w3.org/2000/svg">
<path d="M7.38574 0.853844H5.43262L5.27962 0.549482C5.24721 0.484413 5.19729 0.429678 5.13547 0.391435C5.07365 0.353192 5.00238 0.332959 4.92969 0.333011H3.06933C2.99681 0.332732 2.92566 0.35289 2.86406 0.391175C2.80246 0.429461 2.75289 0.484325 2.72103 0.549482L2.56803 0.853844H0.614909C0.545842 0.853844 0.479604 0.881281 0.430766 0.930118C0.381929 0.978956 0.354492 1.04519 0.354492 1.11426L0.354492 1.63509C0.354492 1.70416 0.381929 1.7704 0.430766 1.81924C0.479604 1.86807 0.545842 1.89551 0.614909 1.89551H7.38574C7.45481 1.89551 7.52104 1.86807 7.56988 1.81924C7.61872 1.7704 7.64616 1.70416 7.64616 1.63509V1.11426C7.64616 1.04519 7.61872 0.978956 7.56988 0.930118C7.52104 0.881281 7.45481 0.853844 7.38574 0.853844ZM1.22038 7.93392C1.2328 8.13226 1.32034 8.31842 1.46518 8.45449C1.61002 8.59056 1.80127 8.66632 2 8.66634H6.00065C6.19938 8.66632 6.39063 8.59056 6.53547 8.45449C6.68031 8.31842 6.76785 8.13226 6.78027 7.93392L7.12532 2.41634H0.875325L1.22038 7.93392Z" fill="#272F6A"/>
</svg>
