<svg width="10" height="8" viewBox="0 0 10 8" fill="none" xmlns="http://www.w3.org/2000/svg">
<path d="M9.07304 6.6628C9.34008 7.12568 9.00488 7.70428 8.47152 7.70428H1.52873C0.994336 7.70428 0.660685 7.12478 0.927207 6.6628L4.39865 0.64388C4.66582 0.180787 5.33499 0.181626 5.60168 0.64388L9.07304 6.6628ZM5.00017 5.4184C4.63262 5.4184 4.33466 5.71636 4.33466 6.08391C4.33466 6.45146 4.63262 6.74942 5.00017 6.74942C5.36771 6.74942 5.66568 6.45146 5.66568 6.08391C5.66568 5.71636 5.36771 5.4184 5.00017 5.4184ZM4.36832 3.02624L4.47564 4.99384C4.48066 5.08591 4.55679 5.15799 4.64899 5.15799H5.35134C5.44354 5.15799 5.51967 5.08591 5.52469 4.99384L5.63201 3.02624C5.63743 2.92679 5.55825 2.84317 5.45866 2.84317H4.54166C4.44206 2.84317 4.3629 2.92679 4.36832 3.02624Z" fill="#212545"/>
</svg>
